<svg width="208" height="208" viewBox="0 0 208 208" fill="none" xmlns="http://www.w3.org/2000/svg">
<path d="M12 0C5.384 0 0 5.384 0 12V196C0 202.616 5.384 208 12 208H196C202.616 208 208 202.616 208 196V12C208 5.384 202.616 0 196 0H12ZM12 8H196C198.204 8 200 9.796 200 12V196C200 198.204 198.204 200 196 200H12C9.796 200 8 198.204 8 196V12C8 9.796 9.796 8 12 8ZM32 24C27.588 24 24 27.588 24 32V176C24 180.412 27.588 184 32 184H44C46.208 184 48 182.208 48 180C48 177.792 46.208 176 44 176H32V32H176V176H164C161.792 176 160 177.792 160 180C160 182.208 161.792 184 164 184H176C180.412 184 184 180.412 184 176V32C184 27.588 180.412 24 176 24H32ZM78.3828 64.0312C77.8606 63.9713 77.3183 64.0091 76.7812 64.1641C75.4533 64.5481 74.4193 65.5748 74.0312 66.8828L52.1719 138.805C51.5359 140.925 52.7544 143.149 54.8984 143.781C57.0464 144.409 59.3015 143.202 59.9375 141.086L66.3359 119.984H89.4531L95.8906 141.117C96.4266 142.865 98.0895 144.033 99.9375 143.953C100.326 144.009 100.721 144.009 101.109 143.953C103.253 143.321 104.468 141.096 103.828 138.984C103.824 138.976 103.82 138.961 103.82 138.961L81.7969 66.8828C81.3259 65.2928 79.9496 64.2111 78.3828 64.0312ZM77.9141 81.9453L87.0625 111.992H68.7656L77.9141 81.9453ZM134 88C128.615 88 123.834 90.1799 120 93.4219V92.1094C120.007 91.5793 119.91 91.0531 119.712 90.5612C119.514 90.0693 119.221 89.6216 118.849 89.2442C118.476 88.8667 118.033 88.5669 117.544 88.3624C117.055 88.1578 116.53 88.0524 116 88.0524C115.47 88.0524 114.945 88.1578 114.456 88.3624C113.967 88.5669 113.524 88.8667 113.151 89.2442C112.779 89.6216 112.486 90.0693 112.288 90.5612C112.09 91.0531 111.993 91.5793 112 92.1094V110V136V140C111.993 140.53 112.09 141.056 112.288 141.548C112.486 142.04 112.779 142.488 113.151 142.865C113.524 143.243 113.967 143.542 114.456 143.747C114.945 143.952 115.47 144.057 116 144.057C116.53 144.057 117.055 143.952 117.544 143.747C118.033 143.542 118.476 143.243 118.849 142.865C119.221 142.488 119.514 142.04 119.712 141.548C119.91 141.056 120.007 140.53 120 140V136V110C120 102.222 126.222 96 134 96C141.778 96 148 102.222 148 110V140C147.993 140.53 148.09 141.056 148.288 141.548C148.486 142.04 148.779 142.488 149.151 142.865C149.524 143.243 149.967 143.542 150.456 143.747C150.945 143.952 151.47 144.057 152 144.057C152.53 144.057 153.055 143.952 153.544 143.747C154.033 143.542 154.476 143.243 154.849 142.865C155.221 142.488 155.514 142.04 155.712 141.548C155.91 141.056 156.007 140.53 156 140V110C156 97.8977 146.102 88 134 88ZM64 168C61.792 168 60 169.792 60 172V180C60 182.208 61.792 184 64 184C66.208 184 68 182.208 68 180V172C68 169.792 66.208 168 64 168ZM84 168C81.792 168 80 169.792 80 172V180C80 182.208 81.792 184 84 184C86.208 184 88 182.208 88 180V172C88 169.792 86.208 168 84 168ZM104 168C101.792 168 100 169.792 100 172V180C100 182.208 101.792 184 104 184C106.208 184 108 182.208 108 180V172C108 169.792 106.208 168 104 168ZM124 168C121.792 168 120 169.792 120 172V180C120 182.208 121.792 184 124 184C126.208 184 128 182.208 128 180V172C128 169.792 126.208 168 124 168ZM144 168C141.792 168 140 169.792 140 172V180C140 182.208 141.792 184 144 184C146.208 184 148 182.208 148 180V172C148 169.792 146.208 168 144 168Z" fill="#FFBC5E"/>
</svg>
